<svg id="Layer_3" enable-background="new 0 0 64 64" height="512" viewBox="0 0 64 64" width="512" xmlns="http://www.w3.org/2000/svg"><path d="m6 17h52v45h-52z" fill="#8892a0"/><path d="m14 32h36v30h-36z" fill="#4d5d7a"/><g fill="#c7e2fc"><path d="m26 36h4v22h-4z"/><path d="m18 36h4v22h-4z"/><path d="m34 36h4v22h-4z" transform="matrix(-1 0 0 -1 72 94)"/><path d="m42 36h4v22h-4z" transform="matrix(-1 0 0 -1 88 94)"/></g><path d="m10 28h44v4h-44z" fill="#c18e59"/><path d="m2 13h60v4h-60z" fill="#c18e59"/><circle cx="32" cy="13" fill="#3d98f7" r="11"/><circle cx="32" cy="13" fill="#a1cdfb" r="7"/><path d="m25 13c0 1.237.323 2.396.886 3.405 1.273.996 2.872 1.595 4.614 1.595 4.142 0 7.5-3.358 7.5-7.5 0-.439-.045-.867-.118-1.286-1.246-1.932-3.412-3.214-5.882-3.214-3.866 0-7 3.134-7 7z" fill="#c7e2fc"/><path d="m2 60h60v2h-60z" fill="#c18e59"/><path d="m33 10h2v2h-2z" fill="#fff"/><path d="m35 12h2v2h-2z" fill="#fff"/><path d="m33 14h2v2h-2z" fill="#fff"/></svg>